<svg width="1200" height="630" viewBox="0 0 1200 630" fill="none" xmlns="http://www.w3.org/2000/svg">
  <rect width="1200" height="630" fill="#F3F1EC"/>
  <rect x="34" y="34" width="1132" height="562" rx="34" fill="#FCFBF8" stroke="#D9DDD5" stroke-width="2"/>
  <rect x="78" y="76" width="84" height="84" rx="22" fill="#FFFFFF" stroke="#D9DDD5" stroke-width="2"/>
  <rect x="101" y="99" width="38" height="38" rx="13" fill="#D9A24D"/>
  <text x="194" y="118" fill="#5D685F" font-family="Roboto, Arial, sans-serif" font-size="24" font-weight="700" letter-spacing="2">COLLAGE MAKER</text>
  <text x="78" y="246" fill="#1F3B2D" font-family="Roboto, Arial, sans-serif" font-size="72" font-weight="700">Make a clean photo</text>
  <text x="78" y="326" fill="#1F3B2D" font-family="Roboto, Arial, sans-serif" font-size="72" font-weight="700">collage online</text>
  <text x="78" y="406" fill="#1F3B2D" font-family="Roboto, Arial, sans-serif" font-size="72" font-weight="700">without the clutter.</text>
  <text x="80" y="470" fill="#5D685F" font-family="Roboto, Arial, sans-serif" font-size="30">Drag, resize, and arrange photo tiles right in the preview,</text>
  <text x="80" y="510" fill="#5D685F" font-family="Roboto, Arial, sans-serif" font-size="30">then export a high-quality collage in your browser.</text>
  <rect x="74" y="536" width="188" height="44" rx="22" fill="#FAF8F3" stroke="#D9DDD5"/>
  <text x="112" y="565" fill="#1F3B2D" font-family="Roboto, Arial, sans-serif" font-size="22" font-weight="600">Drag to arrange</text>
  <rect x="278" y="536" width="166" height="44" rx="22" fill="#FAF8F3" stroke="#D9DDD5"/>
  <text x="322" y="565" fill="#1F3B2D" font-family="Roboto, Arial, sans-serif" font-size="22" font-weight="600">Resize tiles</text>
  <rect x="734" y="92" width="330" height="446" rx="28" fill="#FFFFFF" stroke="#D9DDD5" stroke-width="2"/>
  <rect x="762" y="120" width="86" height="86" rx="18" fill="#FFFFFF" stroke="#D9DDD5" stroke-width="2"/>
  <rect x="862" y="120" width="174" height="58" rx="16" fill="#FFFFFF" stroke="#D9DDD5" stroke-width="2"/>
  <rect x="762" y="220" width="58" height="174" rx="16" fill="#FFFFFF" stroke="#D9DDD5" stroke-width="2"/>
  <rect x="834" y="192" width="202" height="202" rx="22" fill="#D9A24D" fill-opacity="0.34" stroke="#D9A24D" stroke-width="2"/>
  <rect x="762" y="408" width="128" height="102" rx="18" fill="#FFFFFF" stroke="#D9DDD5" stroke-width="2"/>
  <rect x="904" y="408" width="132" height="102" rx="18" fill="#FFFFFF" stroke="#D9DDD5" stroke-width="2"/>
</svg>
