<svg width="1200" height="630" viewBox="0 0 1200 630" fill="none" xmlns="http://www.w3.org/2000/svg">
  <rect width="1200" height="630" fill="#F3F1EC"/>
  <rect x="34" y="34" width="1132" height="562" rx="34" fill="#FCFBF8" stroke="#D9DDD5" stroke-width="2"/>
  <rect x="78" y="76" width="84" height="84" rx="22" fill="#FFFFFF" stroke="#D9DDD5" stroke-width="2"/>
  <rect x="101" y="99" width="38" height="38" rx="13" fill="#D9A24D"/>
  <text x="194" y="118" fill="#5D685F" font-family="Roboto, Arial, sans-serif" font-size="24" font-weight="700" letter-spacing="2">SIMPLE PHOTO TOOLS</text>
  <text x="78" y="246" fill="#1F3B2D" font-family="Roboto, Arial, sans-serif" font-size="72" font-weight="700">Free browser-based</text>
  <text x="78" y="326" fill="#1F3B2D" font-family="Roboto, Arial, sans-serif" font-size="72" font-weight="700">photo tools that feel</text>
  <text x="78" y="406" fill="#1F3B2D" font-family="Roboto, Arial, sans-serif" font-size="72" font-weight="700">simple and private.</text>
  <text x="80" y="470" fill="#5D685F" font-family="Roboto, Arial, sans-serif" font-size="30">Watermark photos, build collages, and convert image formats</text>
  <text x="80" y="510" fill="#5D685F" font-family="Roboto, Arial, sans-serif" font-size="30">without uploading anything to a server.</text>
  <rect x="74" y="536" width="194" height="44" rx="22" fill="#FAF8F3" stroke="#D9DDD5"/>
  <text x="106" y="565" fill="#1F3B2D" font-family="Roboto, Arial, sans-serif" font-size="22" font-weight="600">No uploads</text>
  <rect x="284" y="536" width="172" height="44" rx="22" fill="#FAF8F3" stroke="#D9DDD5"/>
  <text x="316" y="565" fill="#1F3B2D" font-family="Roboto, Arial, sans-serif" font-size="22" font-weight="600">No account</text>
  <rect x="706" y="90" width="390" height="450" rx="28" fill="#FFFFFF" stroke="#D9DDD5" stroke-width="2"/>
  <rect x="734" y="118" width="334" height="126" rx="20" fill="#F9F6EF" stroke="#D9DDD5"/>
  <rect x="760" y="146" width="58" height="58" rx="14" fill="#FFFFFF" stroke="#D9DDD5"/>
  <path d="M776 188L789 159L802 188" stroke="#1F3B2D" stroke-width="8" stroke-linecap="round" stroke-linejoin="round"/>
  <path d="M781 177H797" stroke="#1F3B2D" stroke-width="8" stroke-linecap="round"/>
  <rect x="898" y="177" width="92" height="24" rx="12" fill="#D9A24D"/>
  <text x="836" y="162" fill="#1F3B2D" font-family="Roboto, Arial, sans-serif" font-size="26" font-weight="700">Watermarker</text>
  <rect x="734" y="262" width="334" height="126" rx="20" fill="#F9F6EF" stroke="#D9DDD5"/>
  <rect x="760" y="288" width="48" height="48" rx="12" fill="#FFFFFF" stroke="#D9DDD5"/>
  <rect x="820" y="288" width="76" height="34" rx="10" fill="#FFFFFF" stroke="#D9DDD5"/>
  <rect x="760" y="348" width="34" height="34" rx="10" fill="#FFFFFF" stroke="#D9DDD5"/>
  <rect x="808" y="314" width="88" height="68" rx="16" fill="#D9A24D" fill-opacity="0.35" stroke="#D9A24D"/>
  <text x="836" y="306" fill="#1F3B2D" font-family="Roboto, Arial, sans-serif" font-size="26" font-weight="700">Collage</text>
  <rect x="734" y="406" width="334" height="106" rx="20" fill="#F9F6EF" stroke="#D9DDD5"/>
  <path d="M770 430H822L836 444V486H770V430Z" fill="#FFFFFF" stroke="#D9DDD5" stroke-width="2" stroke-linejoin="round"/>
  <path d="M816 430V448H834" stroke="#D9A24D" stroke-width="5" stroke-linecap="round" stroke-linejoin="round"/>
  <path d="M930 438H982L996 452V494H930V438Z" fill="#FFFFFF" stroke="#D9DDD5" stroke-width="2" stroke-linejoin="round"/>
  <path d="M976 438V456H994" stroke="#D9A24D" stroke-width="5" stroke-linecap="round" stroke-linejoin="round"/>
  <path d="M844 444C864 448 881 459 892 476" stroke="#1F3B2D" stroke-width="6" stroke-linecap="round"/>
  <path d="M875 468L893 476L871 478" stroke="#1F3B2D" stroke-width="6" stroke-linecap="round" stroke-linejoin="round"/>
  <text x="836" y="436" fill="#1F3B2D" font-family="Roboto, Arial, sans-serif" font-size="26" font-weight="700">Converter</text>
</svg>
