<svg width="1200" height="630" viewBox="0 0 1200 630" fill="none" xmlns="http://www.w3.org/2000/svg">
  <rect width="1200" height="630" fill="#F3F1EC"/>
  <rect x="34" y="34" width="1132" height="562" rx="34" fill="#FCFBF8" stroke="#D9DDD5" stroke-width="2"/>
  <rect x="78" y="76" width="84" height="84" rx="22" fill="#FFFFFF" stroke="#D9DDD5" stroke-width="2"/>
  <rect x="101" y="99" width="38" height="38" rx="13" fill="#D9A24D"/>
  <text x="194" y="118" fill="#5D685F" font-family="Roboto, Arial, sans-serif" font-size="24" font-weight="700" letter-spacing="2">PHOTO WATERMARKER</text>
  <text x="78" y="246" fill="#1F3B2D" font-family="Roboto, Arial, sans-serif" font-size="72" font-weight="700">Add text, logo, or</text>
  <text x="78" y="326" fill="#1F3B2D" font-family="Roboto, Arial, sans-serif" font-size="72" font-weight="700">proof watermarks</text>
  <text x="78" y="406" fill="#1F3B2D" font-family="Roboto, Arial, sans-serif" font-size="72" font-weight="700">in your browser.</text>
  <text x="80" y="470" fill="#5D685F" font-family="Roboto, Arial, sans-serif" font-size="30">Preview, position, and export a private watermarked image</text>
  <text x="80" y="510" fill="#5D685F" font-family="Roboto, Arial, sans-serif" font-size="30">without sending your photo anywhere.</text>
  <rect x="74" y="536" width="194" height="44" rx="22" fill="#FAF8F3" stroke="#D9DDD5"/>
  <text x="112" y="565" fill="#1F3B2D" font-family="Roboto, Arial, sans-serif" font-size="22" font-weight="600">Text or logo</text>
  <rect x="284" y="536" width="194" height="44" rx="22" fill="#FAF8F3" stroke="#D9DDD5"/>
  <text x="322" y="565" fill="#1F3B2D" font-family="Roboto, Arial, sans-serif" font-size="22" font-weight="600">Proof pattern</text>
  <rect x="738" y="88" width="320" height="454" rx="28" fill="#FFFFFF" stroke="#D9DDD5" stroke-width="2"/>
  <rect x="764" y="116" width="268" height="392" rx="22" fill="#F4F0E8"/>
  <path d="M794 156H1002" stroke="#D9DDD5" stroke-width="2"/>
  <path d="M794 192H962" stroke="#D9DDD5" stroke-width="2"/>
  <path d="M794 228H1002" stroke="#D9DDD5" stroke-width="2"/>
  <rect x="844" y="284" width="118" height="42" rx="21" fill="#D9A24D"/>
  <text x="874" y="312" fill="#1F3B2D" font-family="Roboto, Arial, sans-serif" font-size="24" font-weight="700">© Your Name</text>
  <g opacity="0.22">
    <text x="790" y="392" transform="rotate(-24 790 392)" fill="#1F3B2D" font-family="Roboto, Arial, sans-serif" font-size="24" font-weight="700">PROOF</text>
    <text x="860" y="430" transform="rotate(-24 860 430)" fill="#1F3B2D" font-family="Roboto, Arial, sans-serif" font-size="24" font-weight="700">PROOF</text>
    <text x="930" y="468" transform="rotate(-24 930 468)" fill="#1F3B2D" font-family="Roboto, Arial, sans-serif" font-size="24" font-weight="700">PROOF</text>
  </g>
</svg>
